<svg width="21" height="22" viewBox="0 0 21 22" fill="none" xmlns="http://www.w3.org/2000/svg">
<path d="M3.00794 20.3123H2.38811C2.05933 20.3123 1.74401 20.1697 1.51153 19.9157C1.27905 19.6618 1.14844 19.3173 1.14844 18.9582V4.73942C1.14844 4.38027 1.27905 4.03584 1.51153 3.78188C1.74401 3.52792 2.05933 3.38525 2.38811 3.38525H3.00794C3.33672 3.38525 3.65204 3.52792 3.88452 3.78188C4.117 4.03584 4.24761 4.38027 4.24761 4.73942V18.9582C4.24761 19.3173 4.117 19.6618 3.88452 19.9157C3.65204 20.1697 3.33672 20.3123 3.00794 20.3123ZM9.82612 7.44775C9.82612 7.08861 9.69552 6.74417 9.46303 6.49021C9.23055 6.23626 8.91524 6.09359 8.58645 6.09359H6.10712C5.77833 6.09359 5.46302 6.23626 5.23054 6.49021C4.99805 6.74417 4.86745 7.08861 4.86745 7.44775V8.63265C4.86745 8.67754 4.88377 8.7206 4.91283 8.75234C4.94189 8.78409 4.98131 8.80192 5.0224 8.80192H9.67116C9.71226 8.80192 9.75168 8.78409 9.78074 8.75234C9.8098 8.7206 9.82612 8.67754 9.82612 8.63265V7.44775ZM4.86745 18.9582C4.86745 19.3173 4.99805 19.6618 5.23054 19.9157C5.46302 20.1697 5.77833 20.3123 6.10712 20.3123H8.58645C8.91524 20.3123 9.23055 20.1697 9.46303 19.9157C9.69552 19.6618 9.82612 19.3173 9.82612 18.9582V17.6886C9.82612 17.6662 9.81796 17.6447 9.80343 17.6288C9.7889 17.6129 9.76919 17.604 9.74864 17.604H4.94493C4.92438 17.604 4.90467 17.6129 4.89014 17.6288C4.87561 17.6447 4.86745 17.6662 4.86745 17.6886V18.9582Z" fill="white"/>
<path d="M3.00794 20.3128H2.38811C2.05933 20.3128 1.74401 20.1702 1.51153 19.9162C1.27905 19.6622 1.14844 19.3178 1.14844 18.9587V4.73991C1.14844 4.38076 1.27905 4.03632 1.51153 3.78237C1.74401 3.52841 2.05933 3.38574 2.38811 3.38574H3.00794C3.33672 3.38574 3.65204 3.52841 3.88452 3.78237C4.117 4.03632 4.24761 4.38076 4.24761 4.73991V18.9587C4.24761 19.3178 4.117 19.6622 3.88452 19.9162C3.65204 20.1702 3.33672 20.3128 3.00794 20.3128ZM9.82612 7.44824C9.82612 7.08909 9.69552 6.74466 9.46303 6.4907C9.23055 6.23675 8.91524 6.09408 8.58645 6.09408H6.10712C5.77833 6.09408 5.46302 6.23675 5.23054 6.4907C4.99805 6.74466 4.86745 7.08909 4.86745 7.44824V8.63314C4.86745 8.67803 4.88377 8.72109 4.91283 8.75283C4.94189 8.78457 4.98131 8.80241 5.0224 8.80241H9.67116C9.71226 8.80241 9.75168 8.78457 9.78074 8.75283C9.8098 8.72109 9.82612 8.67803 9.82612 8.63314V7.44824ZM4.86745 18.9587C4.86745 19.3178 4.99805 19.6622 5.23054 19.9162C5.46302 20.1702 5.77833 20.3128 6.10712 20.3128H8.58645C8.91524 20.3128 9.23055 20.1702 9.46303 19.9162C9.69552 19.6622 9.82612 19.3178 9.82612 18.9587V17.6891C9.82612 17.6667 9.81796 17.6452 9.80343 17.6293C9.7889 17.6134 9.76919 17.6045 9.74864 17.6045H4.94493C4.92438 17.6045 4.90467 17.6134 4.89014 17.6293C4.87561 17.6452 4.86745 17.6667 4.86745 17.6891V18.9587Z" fill="white"/>
<path d="M9.74839 10.1562H4.94467C4.90188 10.1562 4.86719 10.1941 4.86719 10.2409V16.1654C4.86719 16.2121 4.90188 16.25 4.94467 16.25H9.74839C9.79118 16.25 9.82587 16.2121 9.82587 16.1654V10.2409C9.82587 10.1941 9.79118 10.1562 9.74839 10.1562Z" fill="white"/>
<path d="M9.74839 10.1562H4.94467C4.90188 10.1562 4.86719 10.1941 4.86719 10.2409V16.1654C4.86719 16.2121 4.90188 16.25 4.94467 16.25H9.74839C9.79118 16.25 9.82587 16.2121 9.82587 16.1654V10.2409C9.82587 10.1941 9.79118 10.1562 9.74839 10.1562Z" fill="white"/>
<path d="M12.9247 20.3123H11.685C11.3562 20.3123 11.0409 20.1697 10.8084 19.9157C10.5759 19.6618 10.4453 19.3173 10.4453 18.9582V2.70817C10.4453 2.34902 10.5759 2.00459 10.8084 1.75063C11.0409 1.49667 11.3562 1.354 11.685 1.354H12.9247C13.2534 1.354 13.5687 1.49667 13.8012 1.75063C14.0337 2.00459 14.1643 2.34902 14.1643 2.70817V18.9582C14.1643 19.3173 14.0337 19.6618 13.8012 19.9157C13.5687 20.1697 13.2534 20.3123 12.9247 20.3123ZM19.7386 18.8503L18.49 4.46224C18.4327 3.79997 17.8337 3.31966 17.1523 3.39118L15.9185 3.51813C15.237 3.5888 14.7311 4.18294 14.7884 4.84521L16.037 19.2332C16.0943 19.8955 16.6932 20.3758 17.3747 20.3043L18.6085 20.1773C19.29 20.1067 19.7959 19.5125 19.7386 18.8503Z" fill="white"/>
<path d="M12.9247 20.3128H11.685C11.3562 20.3128 11.0409 20.1702 10.8084 19.9162C10.5759 19.6622 10.4453 19.3178 10.4453 18.9587V2.70866C10.4453 2.34951 10.5759 2.00507 10.8084 1.75112C11.0409 1.49716 11.3562 1.35449 11.685 1.35449H12.9247C13.2534 1.35449 13.5687 1.49716 13.8012 1.75112C14.0337 2.00507 14.1643 2.34951 14.1643 2.70866V18.9587C14.1643 19.3178 14.0337 19.6622 13.8012 19.9162C13.5687 20.1702 13.2534 20.3128 12.9247 20.3128ZM19.7386 18.8507L18.49 4.46273C18.4327 3.80046 17.8337 3.32015 17.1523 3.39167L15.9185 3.51862C15.237 3.58929 14.7311 4.18343 14.7884 4.8457L16.037 19.2337C16.0943 19.896 16.6932 20.3763 17.3747 20.3048L18.6085 20.1778C19.29 20.1072 19.7959 19.513 19.7386 18.8507Z" fill="white"/>
</svg>
