<svg width="20" height="20" viewBox="0 0 20 20" fill="none" xmlns="http://www.w3.org/2000/svg">
<path d="M2.04567 13.3839C2.28008 13.6183 2.59797 13.7499 2.92942 13.7499C3.26088 13.7499 3.57876 13.6183 3.81317 13.3839L10.0007 7.19643L16.1882 13.3839C16.4239 13.6116 16.7397 13.7376 17.0674 13.7348C17.3952 13.7319 17.7087 13.6005 17.9404 13.3687C18.1722 13.1369 18.3037 12.8234 18.3065 12.4957C18.3094 12.1679 18.1834 11.8522 17.9557 11.6164L10.8844 4.54518C10.65 4.31084 10.3321 4.1792 10.0007 4.1792C9.66922 4.1792 9.35133 4.31084 9.11692 4.54518L2.04567 11.6164C1.81133 11.8508 1.67969 12.1687 1.67969 12.5002C1.67969 12.8316 1.81133 13.1495 2.04567 13.3839Z" fill="#00FF1A"/>
</svg>
