<svg width="20" height="20" viewBox="0 0 20 20" fill="none" xmlns="http://www.w3.org/2000/svg">
<path d="M17.9543 6.61607C17.7199 6.38173 17.402 6.25008 17.0706 6.25008C16.7391 6.25008 16.4212 6.38173 16.1868 6.61607L9.99933 12.8036L3.81183 6.61607C3.57608 6.38837 3.26032 6.26238 2.93258 6.26523C2.60483 6.26807 2.29132 6.39953 2.05956 6.63129C1.8278 6.86305 1.69633 7.17657 1.69349 7.50432C1.69064 7.83206 1.81663 8.14781 2.04433 8.38357L9.11558 15.4548C9.34999 15.6892 9.66787 15.8208 9.99933 15.8208C10.3308 15.8208 10.6487 15.6892 10.8831 15.4548L17.9543 8.38357C18.1887 8.14916 18.3203 7.83127 18.3203 7.49982C18.3203 7.16836 18.1887 6.85048 17.9543 6.61607Z" fill="#FF7612"/>
</svg>
