<svg width="49" height="12" viewBox="0 0 49 12" fill="none" xmlns="http://www.w3.org/2000/svg">
<path d="M4.70022 7.16678H3.66921C3.47933 7.16678 3.32554 7.32057 3.32554 7.51045V11.6345C3.32554 11.8244 3.47933 11.9782 3.66921 11.9782H4.70022C4.89009 11.9782 5.04389 11.8244 5.04389 11.6345V7.51045C5.04389 7.32057 4.89009 7.16678 4.70022 7.16678ZM1.95085 9.2288H0.919842C0.729964 9.2288 0.576172 9.38259 0.576172 9.57247V11.6345C0.576172 11.8244 0.729964 11.9782 0.919842 11.9782H1.95085C2.14073 11.9782 2.29452 11.8244 2.29452 11.6345V9.57247C2.29452 9.38259 2.14073 9.2288 1.95085 9.2288ZM7.44958 5.10476H6.41857C6.22869 5.10476 6.0749 5.25855 6.0749 5.44843V11.6345C6.0749 11.8244 6.22869 11.9782 6.41857 11.9782H7.44958C7.63946 11.9782 7.79325 11.8244 7.79325 11.6345V5.44843C7.79325 5.25855 7.63946 5.10476 7.44958 5.10476ZM10.1989 3.04274H9.16793C8.97805 3.04274 8.82426 3.19653 8.82426 3.38641V11.6345C8.82426 11.8244 8.97805 11.9782 9.16793 11.9782H10.1989C10.3888 11.9782 10.5426 11.8244 10.5426 11.6345V3.38641C10.5426 3.19653 10.3888 3.04274 10.1989 3.04274ZM12.9483 0.980713H11.9173C11.7274 0.980713 11.5736 1.13451 11.5736 1.32438V11.6345C11.5736 11.8244 11.7274 11.9782 11.9173 11.9782H12.9483C13.1382 11.9782 13.292 11.8244 13.292 11.6345V1.32438C13.292 1.13451 13.1382 0.980713 12.9483 0.980713Z" fill="black"/>
<path d="M46.9367 4.41741V5.79209H47.6241V7.16677H46.9367V8.54145H36.6266V4.41741H46.9367ZM47.2804 3.04272H36.283C35.7135 3.04272 35.252 3.50432 35.252 4.07374V8.88512C35.252 9.45454 35.7135 9.91613 36.283 9.91613H47.2804C47.8498 9.91613 48.3114 9.45454 48.3114 8.88512V8.54145H48.4833C48.768 8.54145 48.9988 8.31065 48.9988 8.02595V4.93291C48.9988 4.6482 48.768 4.41741 48.4833 4.41741H48.3114V4.07374C48.3114 3.50432 47.8498 3.04272 47.2804 3.04272ZM44.1874 5.10475H37.314V7.85411H44.1874V5.10475Z" fill="black"/>
<path d="M31.2937 4.99486C27.4882 1.47503 21.5696 1.47632 17.7656 4.99486C17.6225 5.12717 17.6197 5.3512 17.758 5.48845L18.4935 6.21811C18.6254 6.34913 18.8376 6.35193 18.9746 6.22627C22.1089 3.35491 26.9499 3.35426 30.0849 6.22627C30.2219 6.35193 30.4341 6.34892 30.566 6.21811L31.3015 5.48845C31.4396 5.3512 31.4368 5.12717 31.2937 4.99486ZM24.5296 9.22888C23.7703 9.22888 23.155 9.84426 23.155 10.6036C23.155 11.3629 23.7703 11.9782 24.5296 11.9782C25.2889 11.9782 25.9043 11.3629 25.9043 10.6036C25.9043 9.84426 25.2889 9.22888 24.5296 9.22888ZM28.8829 7.43341C26.4072 5.24402 22.6493 5.24638 20.1764 7.43341C20.0282 7.56444 20.0235 7.79191 20.1642 7.93066L20.9039 8.66075C21.0328 8.7879 21.2403 8.7965 21.3775 8.67793C23.1807 7.11917 25.8826 7.12261 27.6815 8.67793C27.8188 8.7965 28.0263 8.78812 28.1551 8.66075L28.8949 7.93066C29.0358 7.79191 29.0309 7.56422 28.8829 7.43341Z" fill="black"/>
</svg>
