<svg width="61" height="56" viewBox="0 0 61 56" fill="none" xmlns="http://www.w3.org/2000/svg">
<path d="M60.2778 28C60.2778 43.464 46.9538 56 30.5178 56C14.0818 56 0.757812 43.464 0.757812 28C0.757812 12.536 14.0818 0 30.5178 0C46.9538 0 60.2778 12.536 60.2778 28Z" fill="url(#paint0_linear_445_2441)"/>
<path d="M22.1991 21.6H24.2791V35.4H22.1991V21.6ZM25.3191 21.6H26.3591V35.4H25.3191V21.6ZM27.3991 21.6H30.5191V35.4H27.3991V21.6ZM31.5591 21.6H32.5991V35.4H31.5591V21.6ZM34.6791 21.6H36.7591V35.4H34.6791V21.6ZM37.7991 21.6H38.8391V35.4H37.7991V21.6ZM20.1191 19.3V23.9H18.0391V19.3C18.0391 18.69 18.2582 18.105 18.6483 17.6737C19.0384 17.2423 19.5674 17 20.1191 17H24.2791V19.3H20.1191ZM40.9191 17C41.4707 17 41.9998 17.2423 42.3898 17.6737C42.7799 18.105 42.9991 18.69 42.9991 19.3V23.9H40.9191V19.3H36.7591V17H40.9191ZM20.1191 33.1V37.7H24.2791V40H20.1191C19.5674 40 19.0384 39.7577 18.6483 39.3263C18.2582 38.895 18.0391 38.31 18.0391 37.7V33.1H20.1191ZM40.9191 37.7V33.1H42.9991V37.7C42.9991 38.31 42.7799 38.895 42.3898 39.3263C41.9998 39.7577 41.4707 40 40.9191 40H36.7591V37.7H40.9191Z" fill="white"/>
<defs>
<linearGradient id="paint0_linear_445_2441" x1="30.5178" y1="0" x2="30.5178" y2="56" gradientUnits="userSpaceOnUse">
<stop offset="0.203125" stop-color="#32B2BB"/>
<stop offset="0.854167" stop-color="#353D70"/>
</linearGradient>
</defs>
</svg>
