<svg width="49" height="15" viewBox="0 0 49 15" fill="none" xmlns="http://www.w3.org/2000/svg">
<path d="M4.70217 8.83744H3.67116C3.48128 8.83744 3.32749 9.03442 3.32749 9.27763V14.5599C3.32749 14.8031 3.48128 15.0001 3.67116 15.0001H4.70217C4.89205 15.0001 5.04584 14.8031 5.04584 14.5599V9.27763C5.04584 9.03442 4.89205 8.83744 4.70217 8.83744ZM1.95281 11.4786H0.921795C0.731918 11.4786 0.578125 11.6756 0.578125 11.9188V14.5599C0.578125 14.8031 0.731918 15.0001 0.921795 15.0001H1.95281C2.14268 15.0001 2.29648 14.8031 2.29648 14.5599V11.9188C2.29648 11.6756 2.14268 11.4786 1.95281 11.4786ZM7.45153 6.19631H6.42052C6.23064 6.19631 6.07685 6.3933 6.07685 6.6365V14.5599C6.07685 14.8031 6.23064 15.0001 6.42052 15.0001H7.45153C7.64141 15.0001 7.7952 14.8031 7.7952 14.5599V6.6365C7.7952 6.3933 7.64141 6.19631 7.45153 6.19631ZM10.2009 3.55519H9.16988C8.98001 3.55519 8.82621 3.75217 8.82621 3.99538V14.5599C8.82621 14.8031 8.98001 15.0001 9.16988 15.0001H10.2009C10.3908 15.0001 10.5446 14.8031 10.5446 14.5599V3.99538C10.5446 3.75217 10.3908 3.55519 10.2009 3.55519ZM12.9503 0.914062H11.9192C11.7294 0.914062 11.5756 1.11105 11.5756 1.35425V14.5599C11.5756 14.8031 11.7294 15.0001 11.9192 15.0001H12.9503C13.1401 15.0001 13.2939 14.8031 13.2939 14.5599V1.35425C13.2939 1.11105 13.1401 0.914062 12.9503 0.914062Z" fill="white"/>
<path d="M46.9426 5.31593V7.07668H47.6299V8.83743H46.9426V10.5982H36.6325V5.31593H46.9426ZM47.2863 3.55518H36.2888C35.7194 3.55518 35.2578 4.1464 35.2578 4.87574V11.0384C35.2578 11.7677 35.7194 12.3589 36.2888 12.3589H47.2863C47.8557 12.3589 48.3173 11.7677 48.3173 11.0384V10.5982H48.4891C48.7738 10.5982 49.0046 10.3026 49.0046 9.9379V5.97621C49.0046 5.61154 48.7738 5.31593 48.4891 5.31593H48.3173V4.87574C48.3173 4.1464 47.8557 3.55518 47.2863 3.55518ZM44.1932 6.1963H37.3198V9.7178H44.1932V6.1963Z" fill="white"/>
<path d="M31.2937 6.05545C27.4882 1.5471 21.5696 1.54875 17.7656 6.05545C17.6225 6.22492 17.6197 6.51187 17.758 6.68767L18.4935 7.62224C18.6254 7.79006 18.8376 7.79364 18.9746 7.63269C22.1089 3.95493 26.9499 3.9541 30.0849 7.63269C30.2219 7.79364 30.4341 7.78979 30.566 7.62224L31.3015 6.68767C31.4396 6.51187 31.4368 6.22492 31.2937 6.05545ZM24.5296 11.4786C23.7703 11.4786 23.155 12.2668 23.155 13.2393C23.155 14.2119 23.7703 15.0001 24.5296 15.0001C25.2889 15.0001 25.9043 14.2119 25.9043 13.2393C25.9043 12.2668 25.2889 11.4786 24.5296 11.4786ZM28.8829 9.17885C26.4072 6.37458 22.6493 6.37761 20.1764 9.17885C20.0282 9.34668 20.0235 9.63802 20.1642 9.81575L20.9039 10.7509C21.0328 10.9137 21.2403 10.9247 21.3775 10.7729C23.1807 8.77636 25.8826 8.78076 27.6815 10.7729C27.8188 10.9247 28.0263 10.914 28.1551 10.7509L28.8949 9.81575C29.0358 9.63802 29.0309 9.3464 28.8829 9.17885Z" fill="white"/>
</svg>
