<svg width="69" height="64" viewBox="0 0 69 64" fill="none" xmlns="http://www.w3.org/2000/svg">
<g filter="url(#filter0_d_445_2615)">
<path d="M64.2778 28C64.2778 43.464 50.9538 56 34.5178 56C18.0818 56 4.75781 43.464 4.75781 28C4.75781 12.536 18.0818 0 34.5178 0C50.9538 0 64.2778 12.536 64.2778 28Z" fill="url(#paint0_linear_445_2615)"/>
<path d="M26.1991 21.6H28.2791V35.4H26.1991V21.6ZM29.3191 21.6H30.3591V35.4H29.3191V21.6ZM31.3991 21.6H34.5191V35.4H31.3991V21.6ZM35.5591 21.6H36.5991V35.4H35.5591V21.6ZM38.6791 21.6H40.7591V35.4H38.6791V21.6ZM41.7991 21.6H42.8391V35.4H41.7991V21.6ZM24.1191 19.3V23.9H22.0391V19.3C22.0391 18.69 22.2582 18.105 22.6483 17.6737C23.0384 17.2423 23.5674 17 24.1191 17H28.2791V19.3H24.1191ZM44.9191 17C45.4707 17 45.9998 17.2423 46.3898 17.6737C46.7799 18.105 46.9991 18.69 46.9991 19.3V23.9H44.9191V19.3H40.7591V17H44.9191ZM24.1191 33.1V37.7H28.2791V40H24.1191C23.5674 40 23.0384 39.7577 22.6483 39.3263C22.2582 38.895 22.0391 38.31 22.0391 37.7V33.1H24.1191ZM44.9191 37.7V33.1H46.9991V37.7C46.9991 38.31 46.7799 38.895 46.3898 39.3263C45.9998 39.7577 45.4707 40 44.9191 40H40.7591V37.7H44.9191Z" fill="white"/>
</g>
<defs>
<filter id="filter0_d_445_2615" x="0.757812" y="0" width="67.5234" height="64" filterUnits="userSpaceOnUse" color-interpolation-filters="sRGB">
<feFlood flood-opacity="0" result="BackgroundImageFix"/>
<feColorMatrix in="SourceAlpha" type="matrix" values="0 0 0 0 0 0 0 0 0 0 0 0 0 0 0 0 0 0 127 0" result="hardAlpha"/>
<feOffset dy="4"/>
<feGaussianBlur stdDeviation="2"/>
<feComposite in2="hardAlpha" operator="out"/>
<feColorMatrix type="matrix" values="0 0 0 0 0 0 0 0 0 0 0 0 0 0 0 0 0 0 0.25 0"/>
<feBlend mode="normal" in2="BackgroundImageFix" result="effect1_dropShadow_445_2615"/>
<feBlend mode="normal" in="SourceGraphic" in2="effect1_dropShadow_445_2615" result="shape"/>
</filter>
<linearGradient id="paint0_linear_445_2615" x1="34.5178" y1="0" x2="34.5178" y2="56" gradientUnits="userSpaceOnUse">
<stop offset="0.203125" stop-color="#32B2BB"/>
<stop offset="0.854167" stop-color="#353D70"/>
</linearGradient>
</defs>
</svg>
