<svg width="21" height="22" viewBox="0 0 21 22" fill="none" xmlns="http://www.w3.org/2000/svg">
<path d="M2.96888 20.3123H2.34904C2.02026 20.3123 1.70495 20.1697 1.47247 19.9157C1.23998 19.6618 1.10938 19.3173 1.10938 18.9582V4.73942C1.10938 4.38027 1.23998 4.03584 1.47247 3.78188C1.70495 3.52792 2.02026 3.38525 2.34904 3.38525H2.96888C3.29766 3.38525 3.61297 3.52792 3.84546 3.78188C4.07794 4.03584 4.20855 4.38027 4.20855 4.73942V18.9582C4.20855 19.3173 4.07794 19.6618 3.84546 19.9157C3.61297 20.1697 3.29766 20.3123 2.96888 20.3123ZM9.78706 7.44775C9.78706 7.08861 9.65645 6.74417 9.42397 6.49021C9.19149 6.23626 8.87617 6.09359 8.54739 6.09359H6.06805C5.73927 6.09359 5.42396 6.23626 5.19147 6.49021C4.95899 6.74417 4.82838 7.08861 4.82838 7.44775V8.63265C4.82838 8.67754 4.84471 8.7206 4.87377 8.75234C4.90283 8.78409 4.94224 8.80192 4.98334 8.80192H9.6321C9.6732 8.80192 9.71261 8.78409 9.74167 8.75234C9.77073 8.7206 9.78706 8.67754 9.78706 8.63265V7.44775ZM4.82838 18.9582C4.82838 19.3173 4.95899 19.6618 5.19147 19.9157C5.42396 20.1697 5.73927 20.3123 6.06805 20.3123H8.54739C8.87617 20.3123 9.19149 20.1697 9.42397 19.9157C9.65645 19.6618 9.78706 19.3173 9.78706 18.9582V17.6886C9.78706 17.6662 9.7789 17.6447 9.76437 17.6288C9.74984 17.6129 9.73013 17.604 9.70958 17.604H4.90586C4.88531 17.604 4.86561 17.6129 4.85108 17.6288C4.83655 17.6447 4.82838 17.6662 4.82838 17.6886V18.9582Z" fill="white"/>
<path d="M9.70932 10.1562H4.9056C4.86281 10.1562 4.82812 10.1941 4.82812 10.2409V16.1654C4.82812 16.2121 4.86281 16.25 4.9056 16.25H9.70932C9.75211 16.25 9.7868 16.2121 9.7868 16.1654V10.2409C9.7868 10.1941 9.75211 10.1562 9.70932 10.1562Z" fill="white"/>
<path d="M12.8856 20.3123H11.6459C11.3171 20.3123 11.0018 20.1697 10.7693 19.9157C10.5369 19.6618 10.4062 19.3173 10.4062 18.9582V2.70817C10.4062 2.34902 10.5369 2.00459 10.7693 1.75063C11.0018 1.49667 11.3171 1.354 11.6459 1.354H12.8856C13.2144 1.354 13.5297 1.49667 13.7622 1.75063C13.9947 2.00459 14.1253 2.34902 14.1253 2.70817V18.9582C14.1253 19.3173 13.9947 19.6618 13.7622 19.9157C13.5297 20.1697 13.2144 20.3123 12.8856 20.3123ZM19.6995 18.8503L18.4509 4.46224C18.3936 3.79997 17.7947 3.31966 17.1132 3.39118L15.8794 3.51813C15.198 3.5888 14.692 4.18294 14.7494 4.84521L15.9979 19.2332C16.0553 19.8955 16.6542 20.3758 17.3356 20.3043L18.5695 20.1773C19.2509 20.1067 19.7568 19.5125 19.6995 18.8503Z" fill="white"/>
</svg>
