<svg width="20" height="20" viewBox="0 0 20 20" fill="none" xmlns="http://www.w3.org/2000/svg">
<path d="M7.5026 4.16676C7.28159 4.16676 7.06963 4.25455 6.91335 4.41083C6.75707 4.56711 6.66927 4.77908 6.66927 5.00009C6.66927 5.2211 6.75707 5.43306 6.91335 5.58934C7.06963 5.74562 7.28159 5.83342 7.5026 5.83342C7.72362 5.83342 7.93558 5.74562 8.09186 5.58934C8.24814 5.43306 8.33594 5.2211 8.33594 5.00009C8.33594 4.77908 8.24814 4.56711 8.09186 4.41083C7.93558 4.25455 7.72362 4.16676 7.5026 4.16676ZM5.14427 4.16676C5.31644 3.67881 5.63572 3.25628 6.0581 2.95741C6.48049 2.65854 6.98518 2.49805 7.5026 2.49805C8.02003 2.49805 8.52472 2.65854 8.9471 2.95741C9.36949 3.25628 9.68877 3.67881 9.86094 4.16676H15.8359C16.057 4.16676 16.2689 4.25455 16.4252 4.41083C16.5815 4.56711 16.6693 4.77908 16.6693 5.00009C16.6693 5.2211 16.5815 5.43306 16.4252 5.58934C16.2689 5.74562 16.057 5.83342 15.8359 5.83342H9.86094C9.68877 6.32137 9.36949 6.74389 8.9471 7.04276C8.52472 7.34163 8.02003 7.50213 7.5026 7.50213C6.98518 7.50213 6.48049 7.34163 6.0581 7.04276C5.63572 6.74389 5.31644 6.32137 5.14427 5.83342H4.16927C3.94826 5.83342 3.7363 5.74562 3.58002 5.58934C3.42374 5.43306 3.33594 5.2211 3.33594 5.00009C3.33594 4.77908 3.42374 4.56711 3.58002 4.41083C3.7363 4.25455 3.94826 4.16676 4.16927 4.16676H5.14427ZM12.5026 9.16676C12.2816 9.16676 12.0696 9.25455 11.9133 9.41083C11.7571 9.56711 11.6693 9.77908 11.6693 10.0001C11.6693 10.2211 11.7571 10.4331 11.9133 10.5893C12.0696 10.7456 12.2816 10.8334 12.5026 10.8334C12.7236 10.8334 12.9356 10.7456 13.0919 10.5893C13.2481 10.4331 13.3359 10.2211 13.3359 10.0001C13.3359 9.77908 13.2481 9.56711 13.0919 9.41083C12.9356 9.25455 12.7236 9.16676 12.5026 9.16676ZM10.1443 9.16676C10.3164 8.67881 10.6357 8.25628 11.0581 7.95741C11.4805 7.65854 11.9852 7.49805 12.5026 7.49805C13.02 7.49805 13.5247 7.65854 13.9471 7.95741C14.3695 8.25628 14.6888 8.67881 14.8609 9.16676H15.8359C16.057 9.16676 16.2689 9.25455 16.4252 9.41083C16.5815 9.56711 16.6693 9.77908 16.6693 10.0001C16.6693 10.2211 16.5815 10.4331 16.4252 10.5893C16.2689 10.7456 16.057 10.8334 15.8359 10.8334H14.8609C14.6888 11.3214 14.3695 11.7439 13.9471 12.0428C13.5247 12.3416 13.02 12.5021 12.5026 12.5021C11.9852 12.5021 11.4805 12.3416 11.0581 12.0428C10.6357 11.7439 10.3164 11.3214 10.1443 10.8334H4.16927C3.94826 10.8334 3.7363 10.7456 3.58002 10.5893C3.42374 10.4331 3.33594 10.2211 3.33594 10.0001C3.33594 9.77908 3.42374 9.56711 3.58002 9.41083C3.7363 9.25455 3.94826 9.16676 4.16927 9.16676H10.1443ZM7.5026 14.1668C7.28159 14.1668 7.06963 14.2546 6.91335 14.4108C6.75707 14.5671 6.66927 14.7791 6.66927 15.0001C6.66927 15.2211 6.75707 15.4331 6.91335 15.5893C7.06963 15.7456 7.28159 15.8334 7.5026 15.8334C7.72362 15.8334 7.93558 15.7456 8.09186 15.5893C8.24814 15.4331 8.33594 15.2211 8.33594 15.0001C8.33594 14.7791 8.24814 14.5671 8.09186 14.4108C7.93558 14.2546 7.72362 14.1668 7.5026 14.1668ZM5.14427 14.1668C5.31644 13.6788 5.63572 13.2563 6.0581 12.9574C6.48049 12.6585 6.98518 12.498 7.5026 12.498C8.02003 12.498 8.52472 12.6585 8.9471 12.9574C9.36949 13.2563 9.68877 13.6788 9.86094 14.1668H15.8359C16.057 14.1668 16.2689 14.2546 16.4252 14.4108C16.5815 14.5671 16.6693 14.7791 16.6693 15.0001C16.6693 15.2211 16.5815 15.4331 16.4252 15.5893C16.2689 15.7456 16.057 15.8334 15.8359 15.8334H9.86094C9.68877 16.3214 9.36949 16.7439 8.9471 17.0428C8.52472 17.3416 8.02003 17.5021 7.5026 17.5021C6.98518 17.5021 6.48049 17.3416 6.0581 17.0428C5.63572 16.7439 5.31644 16.3214 5.14427 15.8334H4.16927C3.94826 15.8334 3.7363 15.7456 3.58002 15.5893C3.42374 15.4331 3.33594 15.2211 3.33594 15.0001C3.33594 14.7791 3.42374 14.5671 3.58002 14.4108C3.7363 14.2546 3.94826 14.1668 4.16927 14.1668H5.14427Z" fill="#353D70"/>
</svg>
