<svg width="20" height="22" viewBox="0 0 20 22" fill="none" xmlns="http://www.w3.org/2000/svg">
<g clip-path="url(#clip0_445_2434)">
<path fill-rule="evenodd" clip-rule="evenodd" d="M9.17003 2.7228C9.4509 2.44612 9.79658 2.2959 10.1524 2.2959C10.5083 2.2959 10.854 2.44612 11.1348 2.7228L17.842 9.32819C18.4444 9.92287 18.1116 11.1437 17.35 11.1437H16.5524V19.2484C16.5524 19.7858 16.3839 20.3012 16.0838 20.6811C15.7837 21.0611 15.3768 21.2746 14.9524 21.2746H5.35243C4.92808 21.2746 4.52111 21.0611 4.22106 20.6811C3.921 20.3012 3.75243 19.7858 3.75243 19.2484V11.1437H2.95483C2.19243 11.1437 1.86123 9.92186 2.46283 9.3292L9.17003 2.7228Z" fill="#31B2BA"/>
</g>
<defs>
<clipPath id="clip0_445_2434">
<rect width="19.2" height="21.1429" fill="white" transform="translate(0.554688)"/>
</clipPath>
</defs>
</svg>
