<svg width="20" height="21" viewBox="0 0 20 21" fill="none" xmlns="http://www.w3.org/2000/svg">
<g clip-path="url(#clip0_445_986)">
<path fill-rule="evenodd" clip-rule="evenodd" d="M9.17393 2.53226C9.4548 2.27495 9.80049 2.13525 10.1563 2.13525C10.5122 2.13525 10.8579 2.27495 11.1387 2.53226L17.8459 8.67494C18.4483 9.22797 18.1155 10.3632 17.3539 10.3632H16.5563V17.9003C16.5563 18.4 16.3878 18.8793 16.0877 19.2326C15.7876 19.586 15.3807 19.7845 14.9563 19.7845H5.35633C4.93199 19.7845 4.52502 19.586 4.22496 19.2326C3.9249 18.8793 3.75633 18.4 3.75633 17.9003V10.3632H2.95873C2.19633 10.3632 1.86513 9.22703 2.46673 8.67588L9.17393 2.53226Z" fill="white"/>
</g>
<defs>
<clipPath id="clip0_445_986">
<rect width="19.2" height="20.5556" fill="white" transform="translate(0.554688)"/>
</clipPath>
</defs>
</svg>
